<svg xmlns="http://www.w3.org/2000/svg" version="1.1" xmlns:xlink="http://www.w3.org/1999/xlink" viewBox="0.0 0.0 540.0 540.0" fill="none" stroke="none" stroke-linecap="square" stroke-miterlimit="10" width="540" height="540"><metadata><rdf:RDF xmlns:rdf="http://www.w3.org/1999/02/22-rdf-syntax-ns#" xmlns:dc="http://purl.org/dc/elements/1.1/"><rdf:Description><dc:creator>RealFaviconGenerator</dc:creator><dc:source>https://realfavicongenerator.net</dc:source></rdf:Description></rdf:RDF></metadata><clipPath id="g3d33bf73646_0_843.0"><path d="m0 0l960.0 0l0 540.0l-960.0 0l0 -540.0z" clip-rule="nonzero"></path></clipPath><g clip-path="url(#g3d33bf73646_0_843.0)"><path fill="#ffffff" d="m0 0l540.0 0l0 540.0l-540.0 0z" fill-rule="evenodd"></path><path fill="#191a2d" d="m272.92023 23.793657l-212.20546 121.81961l0 246.26585l212.20546 125.75137l213.51877 -127.06061l0 -242.33408z" fill-rule="evenodd"></path><path stroke="#e699a9" stroke-width="8.0" stroke-linejoin="round" stroke-linecap="butt" d="m272.92023 23.793657l-212.20546 121.81961l0 246.26585l212.20546 125.75137l213.51877 -127.06061l0 -242.33408z" fill-rule="evenodd"></path><path fill="#000000" fill-opacity="0.0" d="m82.91268 392.0187l382.92914 0" fill-rule="evenodd"></path><path stroke="#a75629" stroke-width="8.0" stroke-linejoin="round" stroke-linecap="butt" d="m82.91268 392.0187l382.92914 0" fill-rule="evenodd"></path><path fill="#000000" fill-opacity="0.0" d="m82.91268 146.98672l384.47244 0" fill-rule="evenodd"></path><path stroke="#e699a9" stroke-width="12.0" stroke-linejoin="round" stroke-linecap="butt" d="m82.91268 146.98672l384.47244 0" fill-rule="evenodd"></path><path fill="#000000" fill-opacity="0.0" d="m273.58167 47.388893l-196.72443 330.01575" fill-rule="evenodd"></path><path stroke="#499483" stroke-width="3.0" stroke-linejoin="round" stroke-linecap="butt" d="m273.58167 47.388893l-196.72443 330.01575" fill-rule="evenodd"></path><path fill="#000000" fill-opacity="0.0" d="m76.8657 377.42l396.56693 -215.84253" fill-rule="evenodd"></path><path stroke="#fed394" stroke-width="8.0" stroke-linejoin="round" stroke-linecap="butt" d="m76.8657 377.42l396.56693 -215.84253" fill-rule="evenodd"></path><path fill="#000000" fill-opacity="0.0" d="m273.58167 497.37314l0 -449.98425" fill-rule="evenodd"></path><path stroke="#53b3cb" stroke-width="12.0" stroke-linejoin="round" stroke-linecap="butt" d="m273.58167 497.37314l0 -449.98425" fill-rule="evenodd"></path><path fill="#000000" fill-opacity="0.0" d="m125.38756 346.39594l290.74017 0l0 75.1496l-290.74017 0z" fill-rule="evenodd"></path><path fill="#ffffff" d="m168.57578 373.52158q0.5625 0 0.859375 0.203125q0.3125 0.203125 0.453125 0.71875q0.15625 0.5 0.15625 1.484375q0 0.96875 -0.15625 1.484375q-0.140625 0.515625 -0.453125 0.703125q-0.296875 0.1875 -0.859375 0.1875l-1.328125 0l0 21.8125q0 0.78125 -0.578125 1.15625q-0.578125 0.390625 -1.96875 0.390625q-1.078125 0 -1.609375 -0.296875q-0.515625 -0.28125 -0.90625 -0.9375l-10.46875 -17.34375l-0.09375 0l0 13.296875l2.578125 0q0.5625 0 0.859375 0.203125q0.296875 0.1875 0.453125 0.703125q0.15625 0.515625 0.15625 1.484375q0 0.984375 -0.15625 1.5q-0.15625 0.5 -0.453125 0.6875q-0.296875 0.1875 -0.859375 0.1875l-9.40625 0q-0.546875 0 -0.859375 -0.1875q-0.296875 -0.1875 -0.453125 -0.6875q-0.15625 -0.515625 -0.15625 -1.5q0 -0.96875 0.15625 -1.484375q0.15625 -0.515625 0.453125 -0.703125q0.3125 -0.203125 0.859375 -0.203125l1.5625 0l0 -18.078125l-1.5625 0q-0.546875 0 -0.859375 -0.1875q-0.296875 -0.1875 -0.453125 -0.703125q-0.15625 -0.515625 -0.15625 -1.484375q0 -0.984375 0.15625 -1.484375q0.15625 -0.515625 0.453125 -0.71875q0.3125 -0.203125 0.859375 -0.203125l6.140625 0q0.9375 0 1.3125 0.625l9.65625 16.0l0.09375 0l0 -11.84375l-2.140625 0q-0.5625 0 -0.875 -0.1875q-0.296875 -0.1875 -0.453125 -0.703125q-0.140625 -0.515625 -0.140625 -1.484375q0 -0.984375 0.140625 -1.484375q0.15625 -0.515625 0.453125 -0.71875q0.3125 -0.203125 0.875 -0.203125l8.71875 0zm16.77826 5.609375q3.546875 0 6.03125 1.53125q2.484375 1.515625 3.75 4.234375q1.28125 2.703125 1.28125 6.203125q0 0.78125 -0.34375 1.109375q-0.34375 0.328125 -1.125 0.328125l-14.9375 0q0.4375 1.859375 1.890625 2.859375q1.453125 0.984375 3.6875 0.984375q3.609375 0 7.828125 -1.28125q0.265625 -0.09375 0.546875 -0.09375q0.515625 0 0.890625 0.46875q0.375 0.453125 0.671875 1.578125q0.234375 0.859375 0.234375 1.46875q0 0.59375 -0.265625 0.9375q-0.265625 0.34375 -0.875 0.546875q-2.328125 0.765625 -4.75 1.203125q-2.421875 0.453125 -4.75 0.453125q-3.53125 0 -6.09375 -1.4375q-2.5625 -1.453125 -3.90625 -4.0q-1.328125 -2.546875 -1.328125 -5.828125q0 -3.265625 1.390625 -5.8125q1.40625 -2.5625 4.03125 -4.0q2.625 -1.453125 6.140625 -1.453125zm0 5.28125q-4.25 0 -5.25 3.59375l10.234375 0q-0.390625 -1.703125 -1.6875 -2.640625q-1.296875 -0.953125 -3.296875 -0.953125zm35.043884 -5.28125q1.5 0 2.125 0.34375q0.625 0.328125 0.625 1.125l0 4.90625q0 0.796875 -0.5 1.140625q-0.5 0.328125 -1.640625 0.328125q-1.234375 0 -1.703125 -0.484375q-1.375 -1.46875 -3.140625 -2.078125q-1.765625 -0.625 -4.09375 -0.625q-1.375 0 -2.15625 0.5q-0.78125 0.484375 -0.78125 1.296875q0 0.96875 1.734375 1.390625q0.90625 0.234375 3.09375 0.4375q2.15625 0.265625 3.578125 0.515625q1.4375 0.25 2.71875 0.765625q1.859375 0.765625 2.90625 2.140625q1.0625 1.375 1.0625 3.640625q0 2.203125 -1.09375 3.828125q-1.078125 1.609375 -3.171875 2.484375q-2.078125 0.875 -5.0 0.875q-3.234375 0 -6.0 -1.65625l0 0.1875q0 0.796875 -0.6875 1.125q-0.671875 0.34375 -2.15625 0.34375q-1.484375 0 -2.125 -0.34375q-0.625 -0.328125 -0.625 -1.125l0 -5.1875q0 -0.765625 0.546875 -1.109375q0.546875 -0.359375 1.6875 -0.359375q1.421875 0 1.9375 0.65625q1.15625 1.46875 2.96875 2.140625q1.8125 0.671875 3.984375 0.671875q3.71875 0 3.71875 -1.9375q0 -0.578125 -0.53125 -0.921875q-0.515625 -0.359375 -1.53125 -0.578125q-0.578125 -0.125 -2.703125 -0.421875q-2.34375 -0.28125 -4.03125 -0.640625q-1.6875 -0.359375 -3.0625 -1.125q-3.21875 -1.78125 -3.21875 -5.59375q0 -2.015625 1.09375 -3.53125q1.09375 -1.515625 3.015625 -2.3125q1.921875 -0.8125 4.3125 -0.8125q3.515625 0 6.234375 1.703125l0 -0.234375q0 -0.796875 0.5625 -1.125q0.578125 -0.34375 2.046875 -0.34375zm18.77826 -6.125q1.09375 0 1.6875 0.15625q0.59375 0.15625 0.828125 0.46875q0.234375 0.296875 0.234375 0.84375l0 6.5625l8.640625 0q0.8125 0 1.125 0.546875q0.328125 0.53125 0.328125 1.96875q0 1.4375 -0.328125 1.96875q-0.3125 0.515625 -1.125 0.515625l-8.640625 0l0 6.46875q0 3.875 3.0 3.875q1.078125 0 2.5 -0.46875q1.4375 -0.484375 3.34375 -1.34375q0.515625 -0.21875 0.8125 -0.21875q0.484375 0 0.90625 0.40625q0.421875 0.40625 0.796875 1.34375q0.421875 1.046875 0.421875 1.703125q0 0.5 -0.25 0.84375q-0.25 0.328125 -0.734375 0.59375q-4.796875 2.421875 -8.3125 2.421875q-4.046875 0 -6.171875 -2.25q-2.125 -2.265625 -2.125 -6.59375l0 -6.78125l-4.5 0q-0.8125 0 -1.140625 -0.515625q-0.328125 -0.53125 -0.328125 -1.96875q0 -1.4375 0.328125 -1.96875q0.328125 -0.546875 1.140625 -0.546875l4.5 0l0 -6.5625q0 -0.78125 0.703125 -1.125q0.71875 -0.34375 2.359375 -0.34375zm33.356384 6.640625q0.78125 0 1.109375 0.34375q0.34375 0.328125 0.34375 1.125l0 15.265625l6.546875 0q0.5625 0 0.859375 0.203125q0.296875 0.1875 0.453125 0.703125q0.15625 0.515625 0.15625 1.484375q0 0.984375 -0.15625 1.5q-0.15625 0.5 -0.453125 0.6875q-0.296875 0.1875 -0.859375 0.1875l-18.703125 0q-0.5625 0 -0.875 -0.1875q-0.296875 -0.1875 -0.453125 -0.6875q-0.140625 -0.515625 -0.140625 -1.5q0 -0.96875 0.140625 -1.484375q0.15625 -0.515625 0.453125 -0.703125q0.3125 -0.203125 0.875 -0.203125l6.34375 0l0 -11.96875l-4.953125 0q-0.5625 0 -0.875 -0.1875q-0.296875 -0.1875 -0.453125 -0.6875q-0.140625 -0.515625 -0.140625 -1.5q0 -0.96875 0.140625 -1.484375q0.15625 -0.515625 0.453125 -0.703125q0.3125 -0.203125 0.875 -0.203125l9.3125 0zm-1.515625 -10.21875q1.65625 0 2.3125 0.34375q0.671875 0.328125 0.671875 1.125l0 3.8125q0 0.796875 -0.625 1.140625q-0.609375 0.328125 -2.25 0.328125q-1.625 0 -2.296875 -0.328125q-0.65625 -0.34375 -0.65625 -1.140625l0 -3.8125q0 -0.8125 0.609375 -1.140625q0.609375 -0.328125 2.234375 -0.328125zm36.512634 9.703125q2.140625 0 3.359375 1.75q1.234375 1.75 1.234375 5.296875l0 13.5q0 0.796875 -0.34375 1.140625q-0.328125 0.328125 -1.109375 0.328125l-2.890625 0q-0.796875 0 -1.140625 -0.328125q-0.328125 -0.34375 -0.328125 -1.140625l0 -12.171875q0 -1.234375 -0.296875 -1.8125q-0.28125 -0.578125 -0.90625 -0.578125q-1.09375 0 -1.734375 1.703125q-0.640625 1.6875 -0.640625 4.953125l0 7.90625q0 0.796875 -0.34375 1.140625q-0.328125 0.328125 -1.125 0.328125l-2.890625 0q-0.78125 0 -1.125 -0.328125q-0.328125 -0.34375 -0.328125 -1.140625l0 -12.171875q0 -1.234375 -0.296875 -1.8125q-0.296875 -0.578125 -0.921875 -0.578125q-1.09375 0 -1.734375 1.703125q-0.640625 1.6875 -0.640625 4.953125l0 7.90625q0 0.796875 -0.34375 1.140625q-0.328125 0.328125 -1.125 0.328125l-2.875 0q-0.796875 0 -1.140625 -0.328125q-0.328125 -0.34375 -0.328125 -1.140625l0 -15.265625l-1.328125 0q-0.5625 0 -0.859375 -0.1875q-0.296875 -0.1875 -0.453125 -0.6875q-0.15625 -0.515625 -0.15625 -1.5q0 -0.96875 0.15625 -1.484375q0.15625 -0.515625 0.453125 -0.703125q0.296875 -0.203125 0.859375 -0.203125l4.046875 0q0.796875 0 1.125 0.34375q0.34375 0.328125 0.34375 1.125l0 3.34375q1.09375 -2.625 2.5625 -3.96875q1.484375 -1.359375 3.25 -1.359375q3.453125 0 4.453125 4.71875q1.0625 -2.3125 2.484375 -3.515625q1.421875 -1.203125 3.078125 -1.203125zm20.12201 0q5.125 0 7.40625 2.21875q2.28125 2.203125 2.28125 6.328125l0 6.71875q0 0.9375 0.390625 1.46875q0.390625 0.515625 1.140625 0.515625l0.71875 0q0.5625 0 0.859375 0.203125q0.296875 0.1875 0.453125 0.703125q0.15625 0.515625 0.15625 1.484375q0 0.984375 -0.15625 1.5q-0.15625 0.5 -0.453125 0.6875q-0.296875 0.1875 -0.859375 0.1875l-2.609375 0q-1.4375 0 -2.546875 -0.59375q-1.109375 -0.59375 -1.6875 -1.875q-1.828125 1.421875 -3.890625 2.203125q-2.046875 0.78125 -4.203125 0.78125q-2.625 0 -4.546875 -0.890625q-1.90625 -0.90625 -2.921875 -2.5625q-1.0 -1.671875 -1.0 -3.921875q0 -3.265625 2.296875 -5.046875q2.3125 -1.796875 6.453125 -1.796875q3.09375 0 6.578125 0.703125l0 -0.6875q0 -1.546875 -0.984375 -2.296875q-0.96875 -0.75 -3.4375 -0.75q-1.375 0 -3.0625 0.34375q-1.6875 0.328125 -3.328125 0.890625q-0.40625 0.125 -0.671875 0.125q-0.59375 0 -1.046875 -0.4375q-0.453125 -0.4375 -0.828125 -1.453125q-0.34375 -1.03125 -0.34375 -1.671875q0 -1.1875 1.078125 -1.59375q2.0625 -0.734375 4.390625 -1.109375q2.328125 -0.375 4.375 -0.375zm-2.140625 13.109375q-1.625 0 -2.484375 0.578125q-0.84375 0.578125 -0.84375 1.703125q0 1.09375 0.828125 1.671875q0.828125 0.5625 2.390625 0.5625q1.59375 0 3.15625 -0.640625q1.578125 -0.640625 2.953125 -1.765625l0 -1.484375q-3.0625 -0.625 -6.0 -0.625zm27.96576 -19.234375q1.09375 0 1.6875 0.15625q0.59375 0.15625 0.828125 0.46875q0.234375 0.296875 0.234375 0.84375l0 6.5625l8.640625 0q0.8125 0 1.125 0.546875q0.328125 0.53125 0.328125 1.96875q0 1.4375 -0.328125 1.96875q-0.3125 0.515625 -1.125 0.515625l-8.640625 0l0 6.46875q0 3.875 3.0 3.875q1.078125 0 2.5 -0.46875q1.4375 -0.484375 3.34375 -1.34375q0.515625 -0.21875 0.8125 -0.21875q0.484375 0 0.90625 0.40625q0.421875 0.40625 0.796875 1.34375q0.421875 1.046875 0.421875 1.703125q0 0.5 -0.25 0.84375q-0.25 0.328125 -0.734375 0.59375q-4.796875 2.421875 -8.3125 2.421875q-4.046875 0 -6.171875 -2.25q-2.125 -2.265625 -2.125 -6.59375l0 -6.78125l-4.5 0q-0.8125 0 -1.140625 -0.515625q-0.328125 -0.53125 -0.328125 -1.96875q0 -1.4375 0.328125 -1.96875q0.328125 -0.546875 1.140625 -0.546875l4.5 0l0 -6.5625q0 -0.78125 0.703125 -1.125q0.71875 -0.34375 2.359375 -0.34375zm31.90329 6.125q3.546875 0 6.03125 1.53125q2.484375 1.515625 3.75 4.234375q1.28125 2.703125 1.28125 6.203125q0 0.78125 -0.34375 1.109375q-0.34375 0.328125 -1.125 0.328125l-14.9375305 0q0.4375 1.859375 1.8906555 2.859375q1.453125 0.984375 3.6875 0.984375q3.609375 0 7.828125 -1.28125q0.265625 -0.09375 0.546875 -0.09375q0.515625 0 0.890625 0.46875q0.375 0.453125 0.671875 1.578125q0.234375 0.859375 0.234375 1.46875q0 0.59375 -0.265625 0.9375q-0.265625 0.34375 -0.875 0.546875q-2.328125 0.765625 -4.75 1.203125q-2.421875 0.453125 -4.75 0.453125q-3.53125 0 -6.0937805 -1.4375q-2.5625 -1.453125 -3.90625 -4.0q-1.328125 -2.546875 -1.328125 -5.828125q0 -3.265625 1.390625 -5.8125q1.40625 -2.5625 4.03125 -4.0q2.6250305 -1.453125 6.1406555 -1.453125zm0 5.28125q-4.2500305 0 -5.2500305 3.59375l10.2344055 0q-0.390625 -1.703125 -1.6875 -2.640625q-1.296875 -0.953125 -3.296875 -0.953125z" fill-rule="nonzero"></path><path fill="#000000" fill-opacity="0.0" d="m141.67323 104.11549l266.96063 0l0 233.03935l-266.96063 0z" fill-rule="evenodd"></path><path fill="#f82551" d="m192.8732 102.0258l165.20312 0l0 40.375l-105.796875 0l61.6875 73.5625l-68.03125 84.468735l117.1875 0l0 40.203125l-173.34375 0l0 -44.59375l63.96875 -80.07811l-60.875 -70.96875l0 -42.96875z" fill-rule="nonzero"></path><path fill="#f82451" d="m41.62134 146.98672c0 -11.402298 9.243378 -20.645676 20.645668 -20.645676c5.4755745 0 10.726879 2.175171 14.59869 6.046982c3.8718185 3.871811 6.046982 9.123123 6.046982 14.598694c0 11.402283 -9.243385 20.64566 -20.645672 20.64566c-11.40229 0 -20.645668 -9.243378 -20.645668 -20.64566z" fill-rule="evenodd"></path><path stroke="#f82551" stroke-width="2.0" stroke-linejoin="round" stroke-linecap="butt" d="m41.62134 146.98672c0 -11.402298 9.243378 -20.645676 20.645668 -20.645676c5.4755745 0 10.726879 2.175171 14.59869 6.046982c3.8718185 3.871811 6.046982 9.123123 6.046982 14.598694c0 11.402283 -9.243385 20.64566 -20.645672 20.64566c-11.40229 0 -20.645668 -9.243378 -20.645668 -20.64566z" fill-rule="evenodd"></path><path fill="#f82451" d="m41.62134 392.0187c0 -11.402283 9.243378 -20.64569 20.645668 -20.64569c5.4755745 0 10.726879 2.175171 14.59869 6.046997c3.8718185 3.8717957 6.046982 9.123108 6.046982 14.598694c0 11.402283 -9.243385 20.64566 -20.645672 20.64566c-11.40229 0 -20.645668 -9.243378 -20.645668 -20.64566z" fill-rule="evenodd"></path><path stroke="#f82551" stroke-width="2.0" stroke-linejoin="round" stroke-linecap="butt" d="m41.62134 392.0187c0 -11.402283 9.243378 -20.64569 20.645668 -20.64569c5.4755745 0 10.726879 2.175171 14.59869 6.046997c3.8718185 3.8717957 6.046982 9.123108 6.046982 14.598694c0 11.402283 -9.243385 20.64566 -20.645672 20.64566c-11.40229 0 -20.645668 -9.243378 -20.645668 -20.64566z" fill-rule="evenodd"></path><path fill="#f82451" d="m252.93723 518.01935c0 -11.402283 9.243378 -20.64566 20.64566 -20.64566c5.475586 0 10.726898 2.1751404 14.598694 6.0469666c3.8718262 3.8718262 6.046997 9.123108 6.046997 14.598694c0 11.402283 -9.243408 20.64569 -20.64569 20.64569c-11.402283 0 -20.64566 -9.243408 -20.64566 -20.64569z" fill-rule="evenodd"></path><path stroke="#f82551" stroke-width="2.0" stroke-linejoin="round" stroke-linecap="butt" d="m252.93723 518.01935c0 -11.402283 9.243378 -20.64566 20.64566 -20.64566c5.475586 0 10.726898 2.1751404 14.598694 6.0469666c3.8718262 3.8718262 6.046997 9.123108 6.046997 14.598694c0 11.402283 -9.243408 20.64569 -20.64569 20.64569c-11.402283 0 -20.64566 -9.243408 -20.64566 -20.64569z" fill-rule="evenodd"></path><path fill="#f82451" d="m465.8294 392.0187c0 -11.402283 9.243378 -20.64569 20.64566 -20.64569c5.475586 0 10.726898 2.175171 14.598694 6.046997c3.8718262 3.8717957 6.046997 9.123108 6.046997 14.598694c0 11.402283 -9.243378 20.64566 -20.64569 20.64566c-11.402283 0 -20.64566 -9.243378 -20.64566 -20.64566z" fill-rule="evenodd"></path><path stroke="#f82551" stroke-width="2.0" stroke-linejoin="round" stroke-linecap="butt" d="m465.8294 392.0187c0 -11.402283 9.243378 -20.64569 20.64566 -20.64569c5.475586 0 10.726898 2.175171 14.598694 6.046997c3.8718262 3.8717957 6.046997 9.123108 6.046997 14.598694c0 11.402283 -9.243378 20.64566 -20.64569 20.64566c-11.402283 0 -20.64566 -9.243378 -20.64566 -20.64566z" fill-rule="evenodd"></path><path fill="#f82451" d="m467.3946 146.98672c0 -11.402298 9.243378 -20.645676 20.64569 -20.645676c5.4755554 0 10.726868 2.175171 14.598694 6.046982c3.8717957 3.871811 6.0469666 9.123123 6.0469666 14.598694c0 11.402283 -9.243378 20.64566 -20.64566 20.64566c-11.402313 0 -20.64569 -9.243378 -20.64569 -20.64566z" fill-rule="evenodd"></path><path stroke="#f82551" stroke-width="2.0" stroke-linejoin="round" stroke-linecap="butt" d="m467.3946 146.98672c0 -11.402298 9.243378 -20.645676 20.64569 -20.645676c5.4755554 0 10.726868 2.175171 14.598694 6.046982c3.8717957 3.871811 6.0469666 9.123123 6.0469666 14.598694c0 11.402283 -9.243378 20.64566 -20.64566 20.64566c-11.402313 0 -20.64569 -9.243378 -20.64569 -20.64566z" fill-rule="evenodd"></path><path fill="#f82451" d="m252.93599 26.743225c0 -11.402288 9.243393 -20.64567 20.645676 -20.64567c5.4755554 0 10.726868 2.1751623 14.598694 6.046977c3.8717957 3.8718138 6.0469666 9.12312 6.0469666 14.598693c0 11.402287 -9.243378 20.645668 -20.64566 20.645668c-11.402283 0 -20.645676 -9.2433815 -20.645676 -20.645668z" fill-rule="evenodd"></path><path stroke="#f82551" stroke-width="2.0" stroke-linejoin="round" stroke-linecap="butt" d="m252.93599 26.743225c0 -11.402288 9.243393 -20.64567 20.645676 -20.64567c5.4755554 0 10.726868 2.1751623 14.598694 6.046977c3.8717957 3.8718138 6.0469666 9.12312 6.0469666 14.598693c0 11.402287 -9.243378 20.645668 -20.64566 20.645668c-11.402283 0 -20.645676 -9.2433815 -20.645676 -20.645668z" fill-rule="evenodd"></path></g></svg>